# xmcd CD database file
#
# Track frame offsets:
#	150
#	9572
#	29795
#	49882
#	68635
#	90277
#	104392
#	130095
#	155040
#	178725
#	195757
#	234387
#	256152
#	275542
#
# Disc length: 4018 seconds
#
# Revision: 0
# Processed by: cddbd v1.5.1PL0 Copyright (c) Steve Scherf et al.
# Submitted via: CDex 1.51
#
DISCID=b50fb00e
DTITLE=Wilbur de Paris and his Rampart Street Ramblers - Dr Jazz Series Vol. 7
DYEAR=1994
DGENRE=Blues
TTITLE0=Theme: Marchin' and Swingin' - Introduction
TTITLE1=Alexander's Ragtime Band
TTITLE2=Change of Key Boogie, part 1
TTITLE3=Change of Key Boogie, part 2
TTITLE4=Bill Bailey, Won't You Please Come Home
TTITLE5=Too Much Mustard (Tres Moutarde)
TTITLE6=Milenberg Joys
TTITLE7=Blues (My Naughtie Sweetie Give To Me)
TTITLE8=Marchin' and Swingin' (complete version)
TTITLE9=Original Jelly Roll Blues
TTITLE10=The Florida Blues
TTITLE11=Russian Rag
TTITLE12=Blame it on the Blues
TTITLE13=The Pearls/Finish and Theme
EXTD=YEAR: 1994
EXTT0=
EXTT1=
EXTT2=
EXTT3=
EXTT4=
EXTT5=
EXTT6=
EXTT7=
EXTT8=
EXTT9=
EXTT10=
EXTT11=
EXTT12=
EXTT13=
PLAYORDER=
